# xmcd
#
# Track frame offsets:
#	150
#	10415
#	21060
#	31497
#	44442
#	54178
#	65979
#	75489
#	88522
#	100221
#	112243
#	132441
#	144747
#	154877
#	168294
#	181454
#	191997
#	204229
#
# Disc length: 2854 seconds
#
# Revision: 1
# Processed by: cddbd v1.5.2PL0 Copyright (c) Steve Scherf et al.
# Submitted via: audiograbber 1.83.01
#
DISCID=fe0b2412
DTITLE=Lynn Anderson - Greatest Hits
DYEAR=2005
DGENRE=Country
TTITLE0=If I Kiss You Will You Go Away
TTITLE1=Promises, Promises
TTITLE2=No Another Time
TTITLE3=Big Girls Don't Cry
TTITLE4=That's A No No
TTITLE5=Rocky Top
TTITLE6=Stay There 'til I Get There
TTITLE7=Rose Garden
TTITLE8=You're My Man
TTITLE9=How Can I Unlove You
TTITLE10=Cry
TTITLE11=Listen To A Country Song
TTITLE12=Fool Me
TTITLE13=Keep Me In Mind
TTITLE14=Top Of The World
TTITLE15=Sing About Love
TTITLE16=Talkin' To The Wall
TTITLE17=What A Man My Man Is
EXTD=
EXTT0=
EXTT1=
EXTT2=
EXTT3=
EXTT4=
EXTT5=
EXTT6=
EXTT7=
EXTT8=
EXTT9=
EXTT10=
EXTT11=
EXTT12=
EXTT13=
EXTT14=
EXTT15=
EXTT16=
EXTT17=
PLAYORDER=
